<svg width="104" height="16" viewBox="0 0 104 16" fill="none" xmlns="http://www.w3.org/2000/svg">
<path d="M9.15333 2.34001L10.3267 4.68668C10.4867 5.01334 10.9133 5.32668 11.2733 5.38668L13.4 5.74001C14.76 5.96668 15.08 6.95334 14.1 7.92668L12.4467 9.58001C12.1667 9.86001 12.0133 10.4 12.1 10.7867L12.5733 12.8333C12.9467 14.4533 12.0867 15.08 10.6533 14.2333L8.66 13.0533C8.3 12.84 7.70667 12.84 7.34 13.0533L5.34667 14.2333C3.92 15.08 3.05333 14.4467 3.42667 12.8333L3.9 10.7867C3.98667 10.4 3.83333 9.86001 3.55333 9.58001L1.9 7.92668C0.926667 6.95334 1.24 5.96668 2.6 5.74001L4.72667 5.38668C5.08 5.32668 5.50667 5.01334 5.66667 4.68668L6.84 2.34001C7.48 1.06668 8.52 1.06668 9.15333 2.34001Z" fill="url(#paint0_linear_2_91)"/>
<path d="M31.1533 2.34001L32.3267 4.68668C32.4867 5.01334 32.9133 5.32668 33.2733 5.38668L35.4 5.74001C36.76 5.96668 37.08 6.95334 36.1 7.92668L34.4467 9.58001C34.1667 9.86001 34.0133 10.4 34.1 10.7867L34.5733 12.8333C34.9467 14.4533 34.0867 15.08 32.6533 14.2333L30.66 13.0533C30.3 12.84 29.7067 12.84 29.34 13.0533L27.3467 14.2333C25.92 15.08 25.0533 14.4467 25.4267 12.8333L25.9 10.7867C25.9867 10.4 25.8333 9.86001 25.5533 9.58001L23.9 7.92668C22.9267 6.95334 23.24 5.96668 24.6 5.74001L26.7267 5.38668C27.08 5.32668 27.5067 5.01334 27.6667 4.68668L28.84 2.34001C29.48 1.06668 30.52 1.06668 31.1533 2.34001Z" fill="url(#paint1_linear_2_91)"/>
<path d="M53.1533 2.34001L54.3267 4.68668C54.4867 5.01334 54.9133 5.32668 55.2733 5.38668L57.4 5.74001C58.76 5.96668 59.08 6.95334 58.1 7.92668L56.4467 9.58001C56.1667 9.86001 56.0133 10.4 56.1 10.7867L56.5733 12.8333C56.9467 14.4533 56.0867 15.08 54.6533 14.2333L52.66 13.0533C52.3 12.84 51.7067 12.84 51.34 13.0533L49.3467 14.2333C47.92 15.08 47.0533 14.4467 47.4267 12.8333L47.9 10.7867C47.9867 10.4 47.8333 9.86001 47.5533 9.58001L45.9 7.92668C44.9267 6.95334 45.24 5.96668 46.6 5.74001L48.7267 5.38668C49.08 5.32668 49.5067 5.01334 49.6667 4.68668L50.84 2.34001C51.48 1.06668 52.52 1.06668 53.1533 2.34001Z" fill="url(#paint2_linear_2_91)"/>
<path d="M75.1533 2.34001L76.3267 4.68668C76.4867 5.01334 76.9133 5.32668 77.2733 5.38668L79.4 5.74001C80.76 5.96668 81.08 6.95334 80.1 7.92668L78.4467 9.58001C78.1667 9.86001 78.0133 10.4 78.1 10.7867L78.5733 12.8333C78.9467 14.4533 78.0867 15.08 76.6533 14.2333L74.66 13.0533C74.3 12.84 73.7067 12.84 73.34 13.0533L71.3467 14.2333C69.92 15.08 69.0533 14.4467 69.4267 12.8333L69.9 10.7867C69.9867 10.4 69.8333 9.86001 69.5533 9.58001L67.9 7.92668C66.9267 6.95334 67.24 5.96668 68.6 5.74001L70.7267 5.38668C71.08 5.32668 71.5067 5.01334 71.6667 4.68668L72.84 2.34001C73.48 1.06668 74.52 1.06668 75.1533 2.34001Z" fill="url(#paint3_linear_2_91)"/>
<path d="M97.1533 2.34001L98.3267 4.68668C98.4867 5.01334 98.9133 5.32668 99.2733 5.38668L101.4 5.74001C102.76 5.96668 103.08 6.95334 102.1 7.92668L100.447 9.58001C100.167 9.86001 100.013 10.4 100.1 10.7867L100.573 12.8333C100.947 14.4533 100.087 15.08 98.6533 14.2333L96.66 13.0533C96.3 12.84 95.7067 12.84 95.34 13.0533L93.3467 14.2333C91.92 15.08 91.0533 14.4467 91.4267 12.8333L91.9 10.7867C91.9867 10.4 91.8333 9.86001 91.5533 9.58001L89.9 7.92668C88.9267 6.95334 89.24 5.96668 90.6 5.74001L92.7267 5.38668C93.08 5.32668 93.5067 5.01334 93.6667 4.68668L94.84 2.34001C95.48 1.06668 96.52 1.06668 97.1533 2.34001Z" fill="url(#paint4_linear_2_91)"/>
<defs>
<linearGradient id="paint0_linear_2_91" x1="1.33405" y1="7.99777" x2="14.6689" y2="7.99777" gradientUnits="userSpaceOnUse">
<stop stop-color="#BC4E9C"/>
<stop offset="1" stop-color="#F80759"/>
</linearGradient>
<linearGradient id="paint1_linear_2_91" x1="23.334" y1="7.99777" x2="36.6689" y2="7.99777" gradientUnits="userSpaceOnUse">
<stop stop-color="#BC4E9C"/>
<stop offset="1" stop-color="#F80759"/>
</linearGradient>
<linearGradient id="paint2_linear_2_91" x1="45.334" y1="7.99777" x2="58.6689" y2="7.99777" gradientUnits="userSpaceOnUse">
<stop stop-color="#BC4E9C"/>
<stop offset="1" stop-color="#F80759"/>
</linearGradient>
<linearGradient id="paint3_linear_2_91" x1="67.334" y1="7.99777" x2="80.6689" y2="7.99777" gradientUnits="userSpaceOnUse">
<stop stop-color="#BC4E9C"/>
<stop offset="1" stop-color="#F80759"/>
</linearGradient>
<linearGradient id="paint4_linear_2_91" x1="89.334" y1="7.99777" x2="102.669" y2="7.99777" gradientUnits="userSpaceOnUse">
<stop stop-color="#BC4E9C"/>
<stop offset="1" stop-color="#F80759"/>
</linearGradient>
</defs>
</svg>
